<svg width="120" height="60" viewBox="0 0 120 60" fill="none" xmlns="http://www.w3.org/2000/svg">
  <!-- SSS Logo Design -->
  <rect width="120" height="60" rx="8" fill="url(#gradient1)"/>
  
  <!-- First S -->
  <path d="M15 15 Q20 10 25 15 Q30 20 25 25 Q20 30 15 25 Q10 20 15 15 Z" fill="white"/>
  <path d="M15 25 Q20 30 25 35 Q30 40 25 45 Q20 50 15 45 Q10 40 15 35 Z" fill="white"/>
  
  <!-- Second S -->
  <path d="M35 15 Q40 10 45 15 Q50 20 45 25 Q40 30 35 25 Q30 20 35 15 Z" fill="white"/>
  <path d="M35 25 Q40 30 45 35 Q50 40 45 45 Q40 50 35 45 Q30 40 35 35 Z" fill="white"/>
  
  <!-- Third S -->
  <path d="M55 15 Q60 10 65 15 Q70 20 65 25 Q60 30 55 25 Q50 20 55 15 Z" fill="white"/>
  <path d="M55 25 Q60 30 65 35 Q70 40 65 45 Q60 50 55 45 Q50 40 55 35 Z" fill="white"/>
  
  <!-- Events Text -->
  <text x="80" y="35" font-family="Inter, sans-serif" font-size="12" font-weight="600" fill="white">EVENTS</text>
  
  <defs>
    <linearGradient id="gradient1" x1="0%" y1="0%" x2="100%" y2="100%">
      <stop offset="0%" style="stop-color:#14b8a6;stop-opacity:1" />
      <stop offset="100%" style="stop-color:#8b5cf6;stop-opacity:1" />
    </linearGradient>
  </defs>
</svg>